# xmcd
#
# Track frame offsets:
#	150
#	11831
#	23596
#	32155
#	42570
#	52431
#	64853
#	76779
#	87249
#	98463
#	107504
#	116802
#	131166
#	139789
#	151349
#	161110
#	173161
#	183967
#	191471
#	201522
#	209846
#	213327
#
# Disc length: 2889 seconds
#
# Revision: 2
# Processed by: cddbd v1.5.2PL0 Copyright (c) Steve Scherf et al.
# Submitted via: EZCDAudioConverter 2.1.7.1
#
DISCID=3f0b4716
DTITLE=The Gremlins - The Coming Generation
DYEAR=1966
DGENRE=
TTITLE0=The Coming Generation
TTITLE1=Blast Off 1970
TTITLE2=I Can't Say
TTITLE3=Never You Mind
TTITLE4=A Man's Gotta Be A Man
TTITLE5=Don't Just Stand There
TTITLE6=Ain't That Loving You Baby
TTITLE7=Ballad Of A Busker
TTITLE8=But She's Gone
TTITLE9=It's Easy To Say
TTITLE10=You Gotta Believe It
TTITLE11=Kingsforth Hemmingseen
TTITLE12=Sunday Breeze
TTITLE13=Understand Our Age
TTITLE14=The Only Thing On My Mind
TTITLE15=I Want Your Love
TTITLE16=Listen To Me
TTITLE17=Don't Ya
TTITLE18=That's What I Want
TTITLE19=Oh My Word
TTITLE20=The Great Drain Robbery #1
TTITLE21=The Great Drain Robbery #2
EXTD=
EXTT0=
EXTT1=
EXTT2=
EXTT3=
EXTT4=
EXTT5=
EXTT6=
EXTT7=
EXTT8=
EXTT9=
EXTT10=
EXTT11=
EXTT12=
EXTT13=
EXTT14=
EXTT15=
EXTT16=
EXTT17=
EXTT18=
EXTT19=
EXTT20=
EXTT21=
PLAYORDER=
